<?xml version="1.0" encoding="utf-8"?>
<!-- Generator: Adobe Illustrator 22.1.0, SVG Export Plug-In . SVG Version: 6.00 Build 0)  -->
<svg version="1.1" id="图层_1" xmlns="http://www.w3.org/2000/svg" xmlns:xlink="http://www.w3.org/1999/xlink" x="0px" y="0px"
	 viewBox="0 0 300.1 200.6" style="enable-background:new 0 0 300.1 200.6;" xml:space="preserve">
<path d="M194.8,200.6h-92.4v-11.2c16.7-8.2,18.5-18.4,18.5-30.6H46.9c-2.4,0-4.8-0.9-6.5-2.4c-1.7-1.6-2.7-3.7-2.7-5.9V8.4
	c0-2.2,1-4.3,2.7-5.9C42.1,0.9,44.5,0,46.9,0h203.4c2.4,0,4.8,0.9,6.5,2.4c1.7,1.6,2.7,3.7,2.7,5.9v142.1c0,2.2-1,4.3-2.7,5.9
	c-1.7,1.6-4.1,2.4-6.5,2.4h-73.9c0,11.5,1.4,22.2,18.5,30.6V200.6z M158,158.8h-18.9c-0.1,6.7,0,16.7-6.6,25.1h32.3
	C157.7,175.4,158.1,165.1,158,158.8z M241,117H56.2v25.1H241V117z M148.6,121.5c5.1,0,9.2,3.7,9.2,8.4s-4.1,8.4-9.2,8.4
	s-9.2-3.7-9.2-8.4C139.3,125.3,143.5,121.5,148.6,121.5z M56.2,16.7v83.6H241V16.7H56.2z"/>
</svg>
